<svg width="155" height="27" viewBox="0 0 155 27" fill="none" xmlns="http://www.w3.org/2000/svg">
<g clip-path="url(#clip0_3_376)">
<path d="M9.15385 5.35844C8.48215 5.33946 7.84452 5.06642 7.3763 4.59729C6.9081 4.12816 6.64615 3.4999 6.64615 2.84589C6.64615 2.19187 6.9081 1.56358 7.3763 1.09446C7.84452 0.625332 8.48215 0.35231 9.15385 0.333313H25.585C26.2567 0.35231 26.8944 0.625332 27.3626 1.09446C27.8307 1.56358 28.0927 2.19187 28.0927 2.84589C28.0927 3.4999 27.8307 4.12816 27.3626 4.59729C26.8944 5.06642 26.2567 5.33946 25.585 5.35844H9.15385ZM2.58271 9.72602C3.09352 9.72602 3.59286 9.5786 4.01758 9.30239C4.4423 9.02619 4.77334 8.63362 4.96882 8.17431C5.16429 7.715 5.21543 7.20961 5.11578 6.72202C5.01613 6.23442 4.77013 5.78653 4.40893 5.435C4.04774 5.08345 3.58754 4.84405 3.08657 4.74705C2.58557 4.65007 2.06626 4.69983 1.59434 4.89008C1.12241 5.08033 0.71905 5.40252 0.435259 5.81588C0.151469 6.22927 0 6.71524 0 7.21238C0.00173124 7.87794 0.274615 8.51568 0.758778 8.9857C1.24294 9.45571 1.89887 9.71968 2.58271 9.71968V9.72602ZM4.93002 18.6075C4.24505 18.6075 3.58809 18.8724 3.10374 19.3438C2.61939 19.8152 2.34731 20.4545 2.34731 21.1212C2.34731 21.7879 2.61939 22.4272 3.10374 22.8986C3.58809 23.3699 4.24505 23.6348 4.93002 23.6348H21.359C22.044 23.6348 22.7009 23.3699 23.1852 22.8986C23.6697 22.4272 23.9417 21.7879 23.9417 21.1212C23.9417 20.4545 23.6697 19.8152 23.1852 19.3438C22.7009 18.8724 22.044 18.6075 21.359 18.6075H4.93002ZM8.68528 9.4715C8.33994 9.46172 7.9961 9.51948 7.67413 9.64134C7.35215 9.76323 7.05855 9.94675 6.81074 10.181C6.56291 10.4153 6.36591 10.6956 6.23139 11.0053C6.09685 11.315 6.02755 11.6478 6.02755 11.9841C6.02755 12.3203 6.09685 12.6531 6.23139 12.9628C6.36591 13.2725 6.56291 13.5528 6.81074 13.7871C7.05855 14.0214 7.35215 14.2049 7.67413 14.3268C7.9961 14.4486 8.33994 14.5064 8.68528 14.4966H21.8276C22.173 14.5064 22.5167 14.4486 22.8388 14.3268C23.1608 14.2049 23.4543 14.0214 23.7021 13.7871C23.9499 13.5528 24.147 13.2725 24.2814 12.9628C24.4159 12.6531 24.4852 12.3203 24.4852 11.9841C24.4852 11.6478 24.4159 11.315 24.2814 11.0053C24.147 10.6956 23.9499 10.4153 23.7021 10.181C23.4543 9.94675 23.1608 9.76323 22.8388 9.64134C22.5167 9.51948 22.173 9.46172 21.8276 9.4715H8.68528ZM27.9323 14.2421C27.4214 14.2417 26.9217 14.3888 26.4967 14.6648C26.0715 14.9409 25.7402 15.3334 25.5445 15.7928C25.3487 16.2522 25.2973 16.7578 25.3969 17.2456C25.4965 17.7334 25.7426 18.1815 26.1039 18.5331C26.4653 18.8848 26.9256 19.1242 27.4269 19.2212C27.9279 19.3181 28.4475 19.2681 28.9194 19.0776C29.3915 18.8871 29.7949 18.5646 30.0784 18.1509C30.362 17.7372 30.5133 17.2509 30.5128 16.7536C30.5137 16.4232 30.4477 16.096 30.3182 15.7905C30.1889 15.4851 29.9991 15.2075 29.7594 14.9736C29.5196 14.7397 29.2348 14.5541 28.9214 14.4275C28.6079 14.3009 28.2719 14.2357 27.9323 14.2357V14.2421Z" fill="#CA3884"/>
</g>
<path d="M50.0462 26.3333V16.68L51.1928 15.1333C51.1573 16.4489 50.8906 17.5867 50.3928 18.5467C49.9128 19.4889 49.2373 20.2178 48.3661 20.7333C47.495 21.2311 46.4728 21.48 45.2995 21.48C44.2862 21.48 43.3617 21.2933 42.5262 20.92C41.6906 20.5289 40.9706 20.0044 40.3662 19.3467C39.7795 18.6711 39.3262 17.88 39.0062 16.9733C38.7039 16.0667 38.5528 15.0889 38.5528 14.04V13.4267C38.5528 12.3778 38.7128 11.4 39.0328 10.4933C39.3706 9.58667 39.8417 8.79556 40.4462 8.12C41.0684 7.44445 41.7973 6.92 42.6328 6.54667C43.4862 6.15556 44.4284 5.96 45.4595 5.96C46.6684 5.96 47.7084 6.22667 48.5795 6.76C49.4684 7.27556 50.1617 8.03111 50.6595 9.02667C51.1573 10.0044 51.4239 11.2044 51.4595 12.6267H50.9528V6.38667H54.3395V26.3333H50.0462ZM46.5528 17.88C47.2106 17.88 47.8062 17.7378 48.3395 17.4533C48.8906 17.1511 49.3261 16.7156 49.6461 16.1467C49.9839 15.5778 50.1528 14.8933 50.1528 14.0933V13.1067C50.1528 12.3244 49.9839 11.6667 49.6461 11.1333C49.3084 10.6 48.8639 10.1911 48.3128 9.90667C47.7617 9.62222 47.175 9.48 46.5528 9.48C45.8239 9.48 45.175 9.66667 44.6062 10.04C44.055 10.3956 43.6195 10.8933 43.2995 11.5333C42.9795 12.1556 42.8195 12.8933 42.8195 13.7467C42.8195 14.5822 42.9795 15.3111 43.2995 15.9333C43.6195 16.5556 44.055 17.0356 44.6062 17.3733C45.175 17.7111 45.8239 17.88 46.5528 17.88ZM62.6095 21.4533C60.9206 21.4533 59.6228 20.9111 58.7161 19.8267C57.8095 18.7244 57.3561 17.0711 57.3561 14.8667V6.38667H61.6228V15.08C61.6228 15.8622 61.845 16.4844 62.2895 16.9467C62.7339 17.4089 63.3295 17.64 64.0761 17.64C64.8406 17.64 65.4628 17.4 65.9428 16.92C66.4228 16.44 66.6628 15.7911 66.6628 14.9733V6.38667H70.9295V21H67.5428V14.84H67.8361C67.8361 16.3156 67.6406 17.5511 67.2495 18.5467C66.8761 19.5244 66.3161 20.2533 65.5695 20.7333C64.8228 21.2133 63.8984 21.4533 62.7961 21.4533H62.6095ZM75.0236 21V6.38667H79.2903V21H75.0236ZM73.077 9.53333V6.38667H79.2903V9.53333H73.077ZM76.677 4.94667C75.877 4.94667 75.2814 4.74222 74.8903 4.33333C74.517 3.90667 74.3303 3.37333 74.3303 2.73333C74.3303 2.07556 74.517 1.54222 74.8903 1.13333C75.2814 0.706667 75.877 0.493334 76.677 0.493334C77.477 0.493334 78.0636 0.706667 78.437 1.13333C78.8281 1.54222 79.0236 2.07556 79.0236 2.73333C79.0236 3.37333 78.8281 3.90667 78.437 4.33333C78.0636 4.74222 77.477 4.94667 76.677 4.94667ZM89.2632 21.5067C88.001 21.5067 86.8988 21.3022 85.9566 20.8933C85.0321 20.4667 84.2588 19.8978 83.6366 19.1867C83.0143 18.4756 82.5521 17.6756 82.2499 16.7867C81.9477 15.88 81.7966 14.9467 81.7966 13.9867V13.48C81.7966 12.4844 81.9566 11.5333 82.2766 10.6267C82.5966 9.70222 83.0677 8.88445 83.6899 8.17333C84.3121 7.46222 85.0855 6.90222 86.0099 6.49333C86.9521 6.08445 88.0277 5.88 89.2366 5.88C90.5521 5.88 91.7166 6.13778 92.7299 6.65333C93.7432 7.15111 94.5521 7.85333 95.1566 8.76C95.761 9.66667 96.0988 10.7067 96.1699 11.88H91.9832C91.9121 11.2222 91.6454 10.6711 91.1832 10.2267C90.7388 9.76445 90.0899 9.53333 89.2366 9.53333C88.5255 9.53333 87.9299 9.71111 87.4499 10.0667C86.9877 10.4222 86.641 10.9111 86.4099 11.5333C86.1788 12.1556 86.0632 12.8933 86.0632 13.7467C86.0632 14.5289 86.1699 15.24 86.3832 15.88C86.5966 16.5022 86.9343 16.9911 87.3966 17.3467C87.8766 17.6844 88.4988 17.8533 89.2632 17.8533C89.8321 17.8533 90.3121 17.7556 90.7032 17.56C91.1121 17.3467 91.4321 17.0622 91.6632 16.7067C91.9121 16.3333 92.0632 15.9067 92.1166 15.4267H96.2766C96.2232 16.6356 95.8854 17.7022 95.2632 18.6267C94.641 19.5333 93.8143 20.2444 92.7832 20.76C91.7521 21.2578 90.5788 21.5067 89.2632 21.5067ZM108.765 21L104.152 14.1733H102.099L108.045 6.38667H112.525L106.925 13.64L106.979 11.56L113.565 21H108.765ZM98.472 21V1.53333H102.739V21H98.472ZM115.026 21V1.53333H119.32V21H115.026ZM113.293 4.68V1.53333H119.32V4.68H113.293ZM123.411 21V6.38667H127.678V21H123.411ZM121.464 9.53333V6.38667H127.678V9.53333H121.464ZM125.064 4.94667C124.264 4.94667 123.669 4.74222 123.278 4.33333C122.904 3.90667 122.718 3.37333 122.718 2.73333C122.718 2.07556 122.904 1.54222 123.278 1.13333C123.669 0.706667 124.264 0.493334 125.064 0.493334C125.864 0.493334 126.451 0.706667 126.824 1.13333C127.216 1.54222 127.411 2.07556 127.411 2.73333C127.411 3.37333 127.216 3.90667 126.824 4.33333C126.451 4.74222 125.864 4.94667 125.064 4.94667ZM136.637 21.4533C134.557 21.4533 132.931 21.0267 131.757 20.1733C130.584 19.32 129.962 18.12 129.891 16.5733H133.677C133.749 17.0356 134.024 17.4533 134.504 17.8267C135.002 18.1822 135.74 18.36 136.717 18.36C137.464 18.36 138.077 18.2356 138.557 17.9867C139.055 17.72 139.304 17.3467 139.304 16.8667C139.304 16.44 139.117 16.1022 138.744 15.8533C138.371 15.5867 137.704 15.4 136.744 15.2933L135.597 15.1867C133.837 15.0089 132.513 14.52 131.624 13.72C130.753 12.92 130.317 11.8978 130.317 10.6533C130.317 9.62222 130.575 8.76 131.091 8.06667C131.606 7.37333 132.317 6.84889 133.224 6.49333C134.149 6.13778 135.197 5.96 136.371 5.96C138.255 5.96 139.775 6.37778 140.931 7.21333C142.086 8.03111 142.691 9.22222 142.744 10.7867H138.957C138.886 10.3067 138.637 9.90667 138.211 9.58667C137.784 9.24889 137.153 9.08 136.317 9.08C135.66 9.08 135.135 9.20444 134.744 9.45333C134.353 9.70222 134.157 10.04 134.157 10.4667C134.157 10.8756 134.326 11.1867 134.664 11.4C135.002 11.6133 135.553 11.7644 136.317 11.8533L137.464 11.96C139.26 12.1556 140.655 12.6533 141.651 13.4533C142.646 14.2533 143.144 15.3289 143.144 16.68C143.144 17.6578 142.877 18.5111 142.344 19.24C141.811 19.9511 141.055 20.5022 140.077 20.8933C139.1 21.2667 137.953 21.4533 136.637 21.4533ZM152.015 21.1867C150.54 21.1867 149.348 21.0089 148.442 20.6533C147.535 20.28 146.868 19.6667 146.442 18.8133C146.033 17.9422 145.828 16.7689 145.828 15.2933V2.44H149.802V15.4533C149.802 16.1467 149.98 16.68 150.335 17.0533C150.708 17.4089 151.233 17.5867 151.908 17.5867H154.068V21.1867H152.015ZM143.615 9.50667V6.38667H154.068V9.50667H143.615Z" fill="#374151"/>
<defs>
<clipPath id="clip0_3_376">
<rect width="30.5128" height="23.3333" fill="white" transform="translate(0 0.333313)"/>
</clipPath>
</defs>
</svg>
